<svg xmlns="http://www.w3.org/2000/svg" width="1280" height="640" viewBox="0 0 1280 640" role="img" aria-labelledby="t d">
  <title id="t">AI and ML Track, GDG on Campus TUM</title>
  <desc id="d">Social preview card for the AI and ML Track repository.</desc>
  <defs>
    <linearGradient id="bg" x1="0" y1="0" x2="1" y2="1">
      <stop offset="0" stop-color="#0A0F24"/>
      <stop offset="0.55" stop-color="#101A3D"/>
      <stop offset="1" stop-color="#15204A"/>
    </linearGradient>
    <linearGradient id="flow" x1="0" y1="0" x2="1" y2="0">
      <stop offset="0" stop-color="#4285F4"/>
      <stop offset="0.5" stop-color="#34A853"/>
      <stop offset="1" stop-color="#FBBC04"/>
    </linearGradient>
    <linearGradient id="title" x1="0" y1="0" x2="1" y2="0">
      <stop offset="0" stop-color="#FFFFFF"/>
      <stop offset="1" stop-color="#C6DAFC"/>
    </linearGradient>
    <linearGradient id="fade" x1="0" y1="0" x2="0" y2="1">
      <stop offset="0" stop-color="#0A0F24" stop-opacity="0.97"/>
      <stop offset="0.72" stop-color="#0E1736" stop-opacity="0.95"/>
      <stop offset="1" stop-color="#101A3D" stop-opacity="0"/>
    </linearGradient>
    <radialGradient id="halo" cx="0.72" cy="0.5" r="0.55">
      <stop offset="0" stop-color="#4285F4" stop-opacity="0.22"/>
      <stop offset="1" stop-color="#4285F4" stop-opacity="0"/>
    </radialGradient>
    <pattern id="grid" width="32" height="32" patternUnits="userSpaceOnUse">
      <path d="M32 0H0V32" fill="none" stroke="#FFFFFF" stroke-opacity="0.035" stroke-width="1"/>
    </pattern>
    <filter id="glow" x="-100%" y="-100%" width="300%" height="300%">
      <feGaussianBlur stdDeviation="6"/>
    </filter>

  </defs>
  <rect width="1280" height="640" fill="url(#bg)"/>
  <rect width="1280" height="640" fill="url(#grid)"/>
  <g opacity="0.9">
    <line x1="120.0" y1="404.0" x2="380.0" y2="360.0" stroke="#8AB4F8" stroke-opacity="0.13" stroke-width="1"/>
    <line x1="120.0" y1="404.0" x2="380.0" y2="404.0" stroke="#8AB4F8" stroke-opacity="0.13" stroke-width="1"/>
    <line x1="120.0" y1="404.0" x2="380.0" y2="448.0" stroke="#8AB4F8" stroke-opacity="0.13" stroke-width="1"/>
    <line x1="120.0" y1="404.0" x2="380.0" y2="492.0" stroke="#8AB4F8" stroke-opacity="0.13" stroke-width="1"/>
    <line x1="120.0" y1="404.0" x2="380.0" y2="536.0" stroke="#8AB4F8" stroke-opacity="0.13" stroke-width="1"/>
    <line x1="120.0" y1="404.0" x2="380.0" y2="580.0" stroke="#8AB4F8" stroke-opacity="0.13" stroke-width="1"/>
    <line x1="120.0" y1="448.0" x2="380.0" y2="360.0" stroke="#8AB4F8" stroke-opacity="0.13" stroke-width="1"/>
    <line x1="120.0" y1="448.0" x2="380.0" y2="404.0" stroke="#8AB4F8" stroke-opacity="0.13" stroke-width="1"/>
    <line x1="120.0" y1="448.0" x2="380.0" y2="448.0" stroke="#8AB4F8" stroke-opacity="0.13" stroke-width="1"/>
    <line x1="120.0" y1="448.0" x2="380.0" y2="492.0" stroke="#8AB4F8" stroke-opacity="0.13" stroke-width="1"/>
    <line x1="120.0" y1="448.0" x2="380.0" y2="536.0" stroke="#8AB4F8" stroke-opacity="0.13" stroke-width="1"/>
    <line x1="120.0" y1="448.0" x2="380.0" y2="580.0" stroke="#8AB4F8" stroke-opacity="0.13" stroke-width="1"/>
    <line x1="120.0" y1="492.0" x2="380.0" y2="360.0" stroke="#8AB4F8" stroke-opacity="0.13" stroke-width="1"/>
    <line x1="120.0" y1="492.0" x2="380.0" y2="404.0" stroke="#8AB4F8" stroke-opacity="0.13" stroke-width="1"/>
    <line x1="120.0" y1="492.0" x2="380.0" y2="448.0" stroke="#8AB4F8" stroke-opacity="0.13" stroke-width="1"/>
    <line x1="120.0" y1="492.0" x2="380.0" y2="492.0" stroke="#8AB4F8" stroke-opacity="0.13" stroke-width="1"/>
    <line x1="120.0" y1="492.0" x2="380.0" y2="536.0" stroke="#8AB4F8" stroke-opacity="0.13" stroke-width="1"/>
    <line x1="120.0" y1="492.0" x2="380.0" y2="580.0" stroke="#8AB4F8" stroke-opacity="0.13" stroke-width="1"/>
    <line x1="120.0" y1="536.0" x2="380.0" y2="360.0" stroke="#8AB4F8" stroke-opacity="0.13" stroke-width="1"/>
    <line x1="120.0" y1="536.0" x2="380.0" y2="404.0" stroke="#8AB4F8" stroke-opacity="0.13" stroke-width="1"/>
    <line x1="120.0" y1="536.0" x2="380.0" y2="448.0" stroke="#8AB4F8" stroke-opacity="0.13" stroke-width="1"/>
    <line x1="120.0" y1="536.0" x2="380.0" y2="492.0" stroke="#8AB4F8" stroke-opacity="0.13" stroke-width="1"/>
    <line x1="120.0" y1="536.0" x2="380.0" y2="580.0" stroke="#8AB4F8" stroke-opacity="0.13" stroke-width="1"/>
    <line x1="380.0" y1="360.0" x2="640.0" y2="338.0" stroke="#8AB4F8" stroke-opacity="0.13" stroke-width="1"/>
    <line x1="380.0" y1="360.0" x2="640.0" y2="382.0" stroke="#8AB4F8" stroke-opacity="0.13" stroke-width="1"/>
    <line x1="380.0" y1="360.0" x2="640.0" y2="426.0" stroke="#8AB4F8" stroke-opacity="0.13" stroke-width="1"/>
    <line x1="380.0" y1="360.0" x2="640.0" y2="470.0" stroke="#8AB4F8" stroke-opacity="0.13" stroke-width="1"/>
    <line x1="380.0" y1="360.0" x2="640.0" y2="514.0" stroke="#8AB4F8" stroke-opacity="0.13" stroke-width="1"/>
    <line x1="380.0" y1="360.0" x2="640.0" y2="558.0" stroke="#8AB4F8" stroke-opacity="0.13" stroke-width="1"/>
    <line x1="380.0" y1="360.0" x2="640.0" y2="602.0" stroke="#8AB4F8" stroke-opacity="0.13" stroke-width="1"/>
    <line x1="380.0" y1="404.0" x2="640.0" y2="338.0" stroke="#8AB4F8" stroke-opacity="0.13" stroke-width="1"/>
    <line x1="380.0" y1="404.0" x2="640.0" y2="382.0" stroke="#8AB4F8" stroke-opacity="0.13" stroke-width="1"/>
    <line x1="380.0" y1="404.0" x2="640.0" y2="426.0" stroke="#8AB4F8" stroke-opacity="0.13" stroke-width="1"/>
    <line x1="380.0" y1="404.0" x2="640.0" y2="470.0" stroke="#8AB4F8" stroke-opacity="0.13" stroke-width="1"/>
    <line x1="380.0" y1="404.0" x2="640.0" y2="514.0" stroke="#8AB4F8" stroke-opacity="0.13" stroke-width="1"/>
    <line x1="380.0" y1="404.0" x2="640.0" y2="558.0" stroke="#8AB4F8" stroke-opacity="0.13" stroke-width="1"/>
    <line x1="380.0" y1="404.0" x2="640.0" y2="602.0" stroke="#8AB4F8" stroke-opacity="0.13" stroke-width="1"/>
    <line x1="380.0" y1="448.0" x2="640.0" y2="338.0" stroke="#8AB4F8" stroke-opacity="0.13" stroke-width="1"/>
    <line x1="380.0" y1="448.0" x2="640.0" y2="382.0" stroke="#8AB4F8" stroke-opacity="0.13" stroke-width="1"/>
    <line x1="380.0" y1="448.0" x2="640.0" y2="426.0" stroke="#8AB4F8" stroke-opacity="0.13" stroke-width="1"/>
    <line x1="380.0" y1="448.0" x2="640.0" y2="470.0" stroke="#8AB4F8" stroke-opacity="0.13" stroke-width="1"/>
    <line x1="380.0" y1="448.0" x2="640.0" y2="514.0" stroke="#8AB4F8" stroke-opacity="0.13" stroke-width="1"/>
    <line x1="380.0" y1="448.0" x2="640.0" y2="558.0" stroke="#8AB4F8" stroke-opacity="0.13" stroke-width="1"/>
    <line x1="380.0" y1="448.0" x2="640.0" y2="602.0" stroke="#8AB4F8" stroke-opacity="0.13" stroke-width="1"/>
    <line x1="380.0" y1="492.0" x2="640.0" y2="338.0" stroke="#8AB4F8" stroke-opacity="0.13" stroke-width="1"/>
    <line x1="380.0" y1="492.0" x2="640.0" y2="382.0" stroke="#8AB4F8" stroke-opacity="0.13" stroke-width="1"/>
    <line x1="380.0" y1="492.0" x2="640.0" y2="426.0" stroke="#8AB4F8" stroke-opacity="0.13" stroke-width="1"/>
    <line x1="380.0" y1="492.0" x2="640.0" y2="470.0" stroke="#8AB4F8" stroke-opacity="0.13" stroke-width="1"/>
    <line x1="380.0" y1="492.0" x2="640.0" y2="514.0" stroke="#8AB4F8" stroke-opacity="0.13" stroke-width="1"/>
    <line x1="380.0" y1="492.0" x2="640.0" y2="558.0" stroke="#8AB4F8" stroke-opacity="0.13" stroke-width="1"/>
    <line x1="380.0" y1="492.0" x2="640.0" y2="602.0" stroke="#8AB4F8" stroke-opacity="0.13" stroke-width="1"/>
    <line x1="380.0" y1="536.0" x2="640.0" y2="338.0" stroke="#8AB4F8" stroke-opacity="0.13" stroke-width="1"/>
    <line x1="380.0" y1="536.0" x2="640.0" y2="382.0" stroke="#8AB4F8" stroke-opacity="0.13" stroke-width="1"/>
    <line x1="380.0" y1="536.0" x2="640.0" y2="426.0" stroke="#8AB4F8" stroke-opacity="0.13" stroke-width="1"/>
    <line x1="380.0" y1="536.0" x2="640.0" y2="470.0" stroke="#8AB4F8" stroke-opacity="0.13" stroke-width="1"/>
    <line x1="380.0" y1="536.0" x2="640.0" y2="514.0" stroke="#8AB4F8" stroke-opacity="0.13" stroke-width="1"/>
    <line x1="380.0" y1="536.0" x2="640.0" y2="558.0" stroke="#8AB4F8" stroke-opacity="0.13" stroke-width="1"/>
    <line x1="380.0" y1="580.0" x2="640.0" y2="338.0" stroke="#8AB4F8" stroke-opacity="0.13" stroke-width="1"/>
    <line x1="380.0" y1="580.0" x2="640.0" y2="382.0" stroke="#8AB4F8" stroke-opacity="0.13" stroke-width="1"/>
    <line x1="380.0" y1="580.0" x2="640.0" y2="426.0" stroke="#8AB4F8" stroke-opacity="0.13" stroke-width="1"/>
    <line x1="380.0" y1="580.0" x2="640.0" y2="470.0" stroke="#8AB4F8" stroke-opacity="0.13" stroke-width="1"/>
    <line x1="380.0" y1="580.0" x2="640.0" y2="514.0" stroke="#8AB4F8" stroke-opacity="0.13" stroke-width="1"/>
    <line x1="380.0" y1="580.0" x2="640.0" y2="558.0" stroke="#8AB4F8" stroke-opacity="0.13" stroke-width="1"/>
    <line x1="380.0" y1="580.0" x2="640.0" y2="602.0" stroke="#8AB4F8" stroke-opacity="0.13" stroke-width="1"/>
    <line x1="640.0" y1="338.0" x2="900.0" y2="360.0" stroke="#8AB4F8" stroke-opacity="0.13" stroke-width="1"/>
    <line x1="640.0" y1="338.0" x2="900.0" y2="404.0" stroke="#8AB4F8" stroke-opacity="0.13" stroke-width="1"/>
    <line x1="640.0" y1="338.0" x2="900.0" y2="448.0" stroke="#8AB4F8" stroke-opacity="0.13" stroke-width="1"/>
    <line x1="640.0" y1="338.0" x2="900.0" y2="492.0" stroke="#8AB4F8" stroke-opacity="0.13" stroke-width="1"/>
    <line x1="640.0" y1="338.0" x2="900.0" y2="536.0" stroke="#8AB4F8" stroke-opacity="0.13" stroke-width="1"/>
    <line x1="640.0" y1="338.0" x2="900.0" y2="580.0" stroke="#8AB4F8" stroke-opacity="0.13" stroke-width="1"/>
    <line x1="640.0" y1="382.0" x2="900.0" y2="360.0" stroke="#8AB4F8" stroke-opacity="0.13" stroke-width="1"/>
    <line x1="640.0" y1="382.0" x2="900.0" y2="404.0" stroke="#8AB4F8" stroke-opacity="0.13" stroke-width="1"/>
    <line x1="640.0" y1="382.0" x2="900.0" y2="448.0" stroke="#8AB4F8" stroke-opacity="0.13" stroke-width="1"/>
    <line x1="640.0" y1="382.0" x2="900.0" y2="492.0" stroke="#8AB4F8" stroke-opacity="0.13" stroke-width="1"/>
    <line x1="640.0" y1="382.0" x2="900.0" y2="536.0" stroke="#8AB4F8" stroke-opacity="0.13" stroke-width="1"/>
    <line x1="640.0" y1="382.0" x2="900.0" y2="580.0" stroke="#8AB4F8" stroke-opacity="0.13" stroke-width="1"/>
    <line x1="640.0" y1="426.0" x2="900.0" y2="360.0" stroke="#8AB4F8" stroke-opacity="0.13" stroke-width="1"/>
    <line x1="640.0" y1="426.0" x2="900.0" y2="404.0" stroke="#8AB4F8" stroke-opacity="0.13" stroke-width="1"/>
    <line x1="640.0" y1="426.0" x2="900.0" y2="448.0" stroke="#8AB4F8" stroke-opacity="0.13" stroke-width="1"/>
    <line x1="640.0" y1="426.0" x2="900.0" y2="492.0" stroke="#8AB4F8" stroke-opacity="0.13" stroke-width="1"/>
    <line x1="640.0" y1="426.0" x2="900.0" y2="536.0" stroke="#8AB4F8" stroke-opacity="0.13" stroke-width="1"/>
    <line x1="640.0" y1="426.0" x2="900.0" y2="580.0" stroke="#8AB4F8" stroke-opacity="0.13" stroke-width="1"/>
    <line x1="640.0" y1="470.0" x2="900.0" y2="360.0" stroke="#8AB4F8" stroke-opacity="0.13" stroke-width="1"/>
    <line x1="640.0" y1="470.0" x2="900.0" y2="404.0" stroke="#8AB4F8" stroke-opacity="0.13" stroke-width="1"/>
    <line x1="640.0" y1="470.0" x2="900.0" y2="448.0" stroke="#8AB4F8" stroke-opacity="0.13" stroke-width="1"/>
    <line x1="640.0" y1="470.0" x2="900.0" y2="492.0" stroke="#8AB4F8" stroke-opacity="0.13" stroke-width="1"/>
    <line x1="640.0" y1="470.0" x2="900.0" y2="536.0" stroke="#8AB4F8" stroke-opacity="0.13" stroke-width="1"/>
    <line x1="640.0" y1="470.0" x2="900.0" y2="580.0" stroke="#8AB4F8" stroke-opacity="0.13" stroke-width="1"/>
    <line x1="640.0" y1="514.0" x2="900.0" y2="360.0" stroke="#8AB4F8" stroke-opacity="0.13" stroke-width="1"/>
    <line x1="640.0" y1="514.0" x2="900.0" y2="404.0" stroke="#8AB4F8" stroke-opacity="0.13" stroke-width="1"/>
    <line x1="640.0" y1="514.0" x2="900.0" y2="448.0" stroke="#8AB4F8" stroke-opacity="0.13" stroke-width="1"/>
    <line x1="640.0" y1="514.0" x2="900.0" y2="492.0" stroke="#8AB4F8" stroke-opacity="0.13" stroke-width="1"/>
    <line x1="640.0" y1="514.0" x2="900.0" y2="536.0" stroke="#8AB4F8" stroke-opacity="0.13" stroke-width="1"/>
    <line x1="640.0" y1="514.0" x2="900.0" y2="580.0" stroke="#8AB4F8" stroke-opacity="0.13" stroke-width="1"/>
    <line x1="640.0" y1="558.0" x2="900.0" y2="360.0" stroke="#8AB4F8" stroke-opacity="0.13" stroke-width="1"/>
    <line x1="640.0" y1="558.0" x2="900.0" y2="404.0" stroke="#8AB4F8" stroke-opacity="0.13" stroke-width="1"/>
    <line x1="640.0" y1="558.0" x2="900.0" y2="448.0" stroke="#8AB4F8" stroke-opacity="0.13" stroke-width="1"/>
    <line x1="640.0" y1="558.0" x2="900.0" y2="492.0" stroke="#8AB4F8" stroke-opacity="0.13" stroke-width="1"/>
    <line x1="640.0" y1="558.0" x2="900.0" y2="536.0" stroke="#8AB4F8" stroke-opacity="0.13" stroke-width="1"/>
    <line x1="640.0" y1="558.0" x2="900.0" y2="580.0" stroke="#8AB4F8" stroke-opacity="0.13" stroke-width="1"/>
    <line x1="640.0" y1="602.0" x2="900.0" y2="360.0" stroke="#8AB4F8" stroke-opacity="0.13" stroke-width="1"/>
    <line x1="640.0" y1="602.0" x2="900.0" y2="404.0" stroke="#8AB4F8" stroke-opacity="0.13" stroke-width="1"/>
    <line x1="640.0" y1="602.0" x2="900.0" y2="448.0" stroke="#8AB4F8" stroke-opacity="0.13" stroke-width="1"/>
    <line x1="640.0" y1="602.0" x2="900.0" y2="536.0" stroke="#8AB4F8" stroke-opacity="0.13" stroke-width="1"/>
    <line x1="640.0" y1="602.0" x2="900.0" y2="580.0" stroke="#8AB4F8" stroke-opacity="0.13" stroke-width="1"/>
    <line x1="900.0" y1="360.0" x2="1160.0" y2="404.0" stroke="#8AB4F8" stroke-opacity="0.13" stroke-width="1"/>
    <line x1="900.0" y1="360.0" x2="1160.0" y2="448.0" stroke="#8AB4F8" stroke-opacity="0.13" stroke-width="1"/>
    <line x1="900.0" y1="360.0" x2="1160.0" y2="492.0" stroke="#8AB4F8" stroke-opacity="0.13" stroke-width="1"/>
    <line x1="900.0" y1="360.0" x2="1160.0" y2="536.0" stroke="#8AB4F8" stroke-opacity="0.13" stroke-width="1"/>
    <line x1="900.0" y1="404.0" x2="1160.0" y2="404.0" stroke="#8AB4F8" stroke-opacity="0.13" stroke-width="1"/>
    <line x1="900.0" y1="404.0" x2="1160.0" y2="448.0" stroke="#8AB4F8" stroke-opacity="0.13" stroke-width="1"/>
    <line x1="900.0" y1="404.0" x2="1160.0" y2="492.0" stroke="#8AB4F8" stroke-opacity="0.13" stroke-width="1"/>
    <line x1="900.0" y1="404.0" x2="1160.0" y2="536.0" stroke="#8AB4F8" stroke-opacity="0.13" stroke-width="1"/>
    <line x1="900.0" y1="448.0" x2="1160.0" y2="404.0" stroke="#8AB4F8" stroke-opacity="0.13" stroke-width="1"/>
    <line x1="900.0" y1="448.0" x2="1160.0" y2="448.0" stroke="#8AB4F8" stroke-opacity="0.13" stroke-width="1"/>
    <line x1="900.0" y1="448.0" x2="1160.0" y2="492.0" stroke="#8AB4F8" stroke-opacity="0.13" stroke-width="1"/>
    <line x1="900.0" y1="448.0" x2="1160.0" y2="536.0" stroke="#8AB4F8" stroke-opacity="0.13" stroke-width="1"/>
    <line x1="900.0" y1="492.0" x2="1160.0" y2="404.0" stroke="#8AB4F8" stroke-opacity="0.13" stroke-width="1"/>
    <line x1="900.0" y1="492.0" x2="1160.0" y2="448.0" stroke="#8AB4F8" stroke-opacity="0.13" stroke-width="1"/>
    <line x1="900.0" y1="492.0" x2="1160.0" y2="492.0" stroke="#8AB4F8" stroke-opacity="0.13" stroke-width="1"/>
    <line x1="900.0" y1="536.0" x2="1160.0" y2="404.0" stroke="#8AB4F8" stroke-opacity="0.13" stroke-width="1"/>
    <line x1="900.0" y1="536.0" x2="1160.0" y2="448.0" stroke="#8AB4F8" stroke-opacity="0.13" stroke-width="1"/>
    <line x1="900.0" y1="536.0" x2="1160.0" y2="492.0" stroke="#8AB4F8" stroke-opacity="0.13" stroke-width="1"/>
    <line x1="900.0" y1="536.0" x2="1160.0" y2="536.0" stroke="#8AB4F8" stroke-opacity="0.13" stroke-width="1"/>
    <line x1="900.0" y1="580.0" x2="1160.0" y2="404.0" stroke="#8AB4F8" stroke-opacity="0.13" stroke-width="1"/>
    <line x1="900.0" y1="580.0" x2="1160.0" y2="448.0" stroke="#8AB4F8" stroke-opacity="0.13" stroke-width="1"/>
    <line x1="900.0" y1="580.0" x2="1160.0" y2="492.0" stroke="#8AB4F8" stroke-opacity="0.13" stroke-width="1"/>
    <line x1="900.0" y1="580.0" x2="1160.0" y2="536.0" stroke="#8AB4F8" stroke-opacity="0.13" stroke-width="1"/>
    <line x1="120.0" y1="536.0" x2="380.0" y2="536.0" stroke="url(#flow)" stroke-width="2.6" stroke-linecap="round"/>
    <line x1="380.0" y1="536.0" x2="640.0" y2="602.0" stroke="url(#flow)" stroke-width="2.6" stroke-linecap="round"/>
    <line x1="640.0" y1="602.0" x2="900.0" y2="492.0" stroke="url(#flow)" stroke-width="2.6" stroke-linecap="round"/>
    <line x1="900.0" y1="492.0" x2="1160.0" y2="536.0" stroke="url(#flow)" stroke-width="2.6" stroke-linecap="round"/>
    <circle cx="120.0" cy="404.0" r="8" fill="#0E1530" stroke="#4285F4" stroke-width="2.2"/>
    <circle cx="120.0" cy="448.0" r="8" fill="#0E1530" stroke="#EA4335" stroke-width="2.2"/>
    <circle cx="120.0" cy="492.0" r="8" fill="#0E1530" stroke="#FBBC04" stroke-width="2.2"/>
    <circle cx="120.0" cy="536.0" r="15" fill="#34A853" opacity="0.28" filter="url(#glow)"/>
    <circle cx="120.0" cy="536.0" r="9" fill="#34A853"/>
    <circle cx="380.0" cy="360.0" r="8" fill="#0E1530" stroke="#FBBC04" stroke-width="2.2"/>
    <circle cx="380.0" cy="404.0" r="8" fill="#0E1530" stroke="#34A853" stroke-width="2.2"/>
    <circle cx="380.0" cy="448.0" r="8" fill="#0E1530" stroke="#4285F4" stroke-width="2.2"/>
    <circle cx="380.0" cy="492.0" r="8" fill="#0E1530" stroke="#EA4335" stroke-width="2.2"/>
    <circle cx="380.0" cy="536.0" r="15" fill="#FBBC04" opacity="0.28" filter="url(#glow)"/>
    <circle cx="380.0" cy="536.0" r="9" fill="#FBBC04"/>
    <circle cx="380.0" cy="580.0" r="8" fill="#0E1530" stroke="#34A853" stroke-width="2.2"/>
    <circle cx="640.0" cy="338.0" r="8" fill="#0E1530" stroke="#4285F4" stroke-width="2.2"/>
    <circle cx="640.0" cy="382.0" r="8" fill="#0E1530" stroke="#EA4335" stroke-width="2.2"/>
    <circle cx="640.0" cy="426.0" r="8" fill="#0E1530" stroke="#FBBC04" stroke-width="2.2"/>
    <circle cx="640.0" cy="470.0" r="8" fill="#0E1530" stroke="#34A853" stroke-width="2.2"/>
    <circle cx="640.0" cy="514.0" r="8" fill="#0E1530" stroke="#4285F4" stroke-width="2.2"/>
    <circle cx="640.0" cy="558.0" r="8" fill="#0E1530" stroke="#EA4335" stroke-width="2.2"/>
    <circle cx="640.0" cy="602.0" r="15" fill="#FBBC04" opacity="0.28" filter="url(#glow)"/>
    <circle cx="640.0" cy="602.0" r="9" fill="#FBBC04"/>
    <circle cx="900.0" cy="360.0" r="8" fill="#0E1530" stroke="#FBBC04" stroke-width="2.2"/>
    <circle cx="900.0" cy="404.0" r="8" fill="#0E1530" stroke="#34A853" stroke-width="2.2"/>
    <circle cx="900.0" cy="448.0" r="8" fill="#0E1530" stroke="#4285F4" stroke-width="2.2"/>
    <circle cx="900.0" cy="492.0" r="15" fill="#EA4335" opacity="0.28" filter="url(#glow)"/>
    <circle cx="900.0" cy="492.0" r="9" fill="#EA4335"/>
    <circle cx="900.0" cy="536.0" r="8" fill="#0E1530" stroke="#FBBC04" stroke-width="2.2"/>
    <circle cx="900.0" cy="580.0" r="8" fill="#0E1530" stroke="#34A853" stroke-width="2.2"/>
    <circle cx="1160.0" cy="404.0" r="8" fill="#0E1530" stroke="#4285F4" stroke-width="2.2"/>
    <circle cx="1160.0" cy="448.0" r="8" fill="#0E1530" stroke="#EA4335" stroke-width="2.2"/>
    <circle cx="1160.0" cy="492.0" r="8" fill="#0E1530" stroke="#FBBC04" stroke-width="2.2"/>
    <circle cx="1160.0" cy="536.0" r="15" fill="#34A853" opacity="0.28" filter="url(#glow)"/>
    <circle cx="1160.0" cy="536.0" r="9" fill="#34A853"/>
  </g>
  <rect x="0" y="0" width="1280" height="400" fill="url(#fade)"/>
  <g transform="translate(96,78)">
    <circle cx="7" cy="7" r="7" fill="#4285F4"/>
    <circle cx="29" cy="7" r="7" fill="#EA4335"/>
    <circle cx="51" cy="7" r="7" fill="#FBBC04"/>
    <circle cx="73" cy="7" r="7" fill="#34A853"/>
  </g>
  <text x="196" y="92" font-family="'Google Sans','Segoe UI',Roboto,'Helvetica Neue',Arial,sans-serif" font-size="26" font-weight="600" letter-spacing="4" fill="#AECBFA">GDG ON CAMPUS · TUM</text>
  <text x="92" y="222" font-family="'Google Sans','Segoe UI',Roboto,'Helvetica Neue',Arial,sans-serif" font-size="112" font-weight="800" fill="url(#title)" letter-spacing="-3">AI / ML Track</text>
  <text x="96" y="294" font-family="'Google Sans','Segoe UI',Roboto,'Helvetica Neue',Arial,sans-serif" font-size="40" font-weight="500" fill="#E8EAED">Learn it. Build it. Ship it. <tspan fill="#34A853" font-weight="700">Responsibly.</tspan></text>
</svg>
